<?xml version="1.0" encoding="UTF-8"?>
<svg id="Calque_2" data-name="Calque 2" xmlns="http://www.w3.org/2000/svg" viewBox="0 0 187.19 161">
  <defs>
    <style>
      .cls-1 {
        fill: #8e8e8e;
      }
    </style>
  </defs>
  <g id="Calque_1-2" data-name="Calque 1">
    <g>
      <path d="m127.21,53c-14.61,0-26.5-11.89-26.5-26.5S112.6,0,127.21,0s26.5,11.89,26.5,26.5-11.89,26.5-26.5,26.5Zm0-48c-11.85,0-21.5,9.64-21.5,21.5s9.65,21.5,21.5,21.5,21.5-9.64,21.5-21.5-9.65-21.5-21.5-21.5Z"/>
      <g>
        <path class="cls-1" d="m30.71,156H9.39c-1.55,0-2.91-.76-3.73-2.08-.81-1.32-.88-2.88-.18-4.27l25.24-51.59v-11.38L1.01,147.41c-1.47,2.93-1.32,6.34.4,9.12,1.72,2.79,4.71,4.46,7.99,4.46h21.33v-5Z"/>
        <path d="m186.29,152.53l-32.35-49.33c-1.55-2.37-4.06-3.9-6.88-4.19-2.82-.29-5.59.69-7.59,2.7l-15.17,15.17c-2.16,2.16-5.15,3.24-8.19,2.96-3.04-.28-5.78-1.89-7.51-4.41l-43.74-63.76c-1.88-2.74-4.46-4.55-7.14-5.12v5.23c1.08.51,2.15,1.45,3.02,2.72l43.74,63.76c2.57,3.75,6.64,6.14,11.17,6.56,4.53.42,8.97-1.19,12.19-4.4l15.17-15.17c.94-.94,2.23-1.39,3.54-1.26,1.32.14,2.49.85,3.21,1.96l32.35,49.33c.1.16.11.32.02.48-.09.16-.23.25-.41.25H57.71v5h124c2.01,0,3.86-1.1,4.81-2.87.96-1.77.86-3.92-.24-5.6Z"/>
      </g>
    </g>
  </g>
</svg>