<svg xmlns="http://www.w3.org/2000/svg" viewBox="0 0 111.31 106.37"><defs><style>.cls-1{fill:#8e8e8e;}</style></defs><g id="Layer_2" data-name="Layer 2"><g id="Calque_1" data-name="Calque 1"><path class="cls-1" d="M14.15,21,5.62,10.25a3.47,3.47,0,0,1,0-3.92,4.58,4.58,0,0,1,3.88-2h4.65V0H9.5A9.7,9.7,0,0,0,1.29,4.14a7.3,7.3,0,0,0,0,8.29l12.86,16.1Z"/><path d="M110,4.14A9.73,9.73,0,0,0,101.8,0H41.15V4.37H101.8a4.58,4.58,0,0,1,3.89,2,3.47,3.47,0,0,1,0,3.92L65.15,61.12a9.19,9.19,0,0,0-2,5.71V90.16l-15,7.91V66.36a7.84,7.84,0,0,0-1.7-4.87l-5.3-6.65V62.3l.19.23a8.3,8.3,0,0,1,1.81,5.17v38.67l5-2.64,15-7.92,5-2.64V67.5a7.72,7.72,0,0,1,1.69-4.81L110,12.43A7.34,7.34,0,0,0,110,4.14Z"/></g></g></svg>