<?xml version="1.0" encoding="UTF-8"?><svg id="Calque_2" xmlns="http://www.w3.org/2000/svg" viewBox="0 0 125.86 158.5"><defs><style>.cls-1{fill:#dd6031;}</style></defs><g id="Calque_1-2"><g><path class="cls-1" d="M17,153.5H5.04c-.03-.98-.04-1.95-.04-2.88,0-18.14,4.33-35.17,12-48.88v-9.39C6.22,107.82,0,128.46,0,150.62c0,1.76,.04,3.62,.13,5.5l.11,2.38H17v-5Z"/><path d="M94.83,77.24c8.86-8.45,13.88-20.1,13.88-32.43C108.72,20.1,88.61,0,63.9,0S19.08,20.1,19.08,44.82c0,6.9,1.6,13.62,4.58,19.68h5.65c-3.38-5.94-5.23-12.71-5.23-19.68C24.08,22.86,41.95,5,63.9,5s39.82,17.86,39.82,39.82c0,11.89-5.25,23.06-14.42,30.66l-2.5,2.07,2.64,1.89c19.38,13.85,31.42,41.12,31.42,71.18,0,.94-.01,1.9-.04,2.88H49v5H125.62l.11-2.38c.09-1.89,.13-3.74,.13-5.5,0-30.35-11.82-58.12-31.03-73.37Z"/></g></g></svg>