<?xml version="1.0" encoding="UTF-8"?>
<svg id="Calque_2" data-name="Calque 2" xmlns="http://www.w3.org/2000/svg" viewBox="0 0 108.75 99.28">
  <defs>
    <style>
      .cls-1 {
        fill: #8e8e8e;
      }
    </style>
  </defs>
  <g id="Calque_1-2" data-name="Calque 1">
    <g>
      <polygon class="cls-1" points="24.83 42.59 7.07 24.83 24.83 7.07 24.83 0 0 24.83 24.83 49.66 24.83 42.59"/>
      <path d="m96.19,52.43L51.83,8.07v7.07s39.89,39.89,39.89,39.89c.3.3.53.68.64,1.1l9.1,32.79c.52,1.87-1.2,3.6-3.08,3.08l-32.79-9.11c-.42-.12-.79-.34-1.1-.64l-12.67-12.67v7.07s10.06,10.06,10.06,10.06c.3.3.68.53,1.1.64l42.58,11.82c1.87.52,3.6-1.2,3.08-3.08l-11.82-42.58c-.12-.42-.34-.79-.64-1.1Z"/>
    </g>
  </g>
</svg>