<?xml version="1.0" encoding="UTF-8"?>
<svg id="Calque_2" data-name="Calque 2" xmlns="http://www.w3.org/2000/svg" viewBox="0 0 108.46 99.6">
  <defs>
    <style>
      .cls-1 {
        fill: #dd6031;
      }
    </style>
  </defs>
  <g id="Calque_1-2" data-name="Calque 1">
    <g>
      <polygon class="cls-1" points="24.76 42.59 7.07 24.76 24.9 7.07 24.93 0 0 24.73 24.73 49.66 24.76 42.59"/>
      <path d="m96.08,52.71L51.89,8.17l-.03,7.07,39.74,40.05c.3.31.52.69.64,1.1l8.98,32.83c.51,1.88-1.22,3.59-3.09,3.07l-32.76-9.23c-.41-.12-.79-.34-1.1-.65l-12.62-12.72-.03,7.07,10.02,10.1c.3.31.68.53,1.1.65l42.54,11.99c1.87.53,3.6-1.19,3.09-3.07l-11.65-42.63c-.11-.42-.33-.8-.64-1.1Z"/>
    </g>
  </g>
</svg>