<?xml version="1.0" encoding="UTF-8"?>
<svg id="Calque_2" data-name="Calque 2" xmlns="http://www.w3.org/2000/svg" viewBox="0 0 119.27 117.04">
  <defs>
    <style>
      .cls-1 {
        fill: #dd6031;
      }
    </style>
  </defs>
  <g id="Calque_1-2" data-name="Calque 1">
    <g>
      <path d="m70.27,83.51c-19.67-2.24-35-18.98-35-39.24S50.6,7.28,70.27,5.04V0C47.84,2.26,30.27,21.25,30.27,44.27c0,10.86,3.92,20.82,10.41,28.56L0,113.51l3.54,3.54,40.57-40.57c6.97,6.64,16.07,11.05,26.17,12.07v-5.04Z"/>
      <path class="cls-1" d="m102.27,9.33v6.63c7.39,7.18,12,17.22,12,28.32s-4.61,21.13-12,28.32v6.63c10.34-8.16,17-20.78,17-34.95s-6.66-26.79-17-34.95Z"/>
    </g>
  </g>
</svg>